<svg width="289" height="209" viewBox="0 0 289 209" fill="none" xmlns="http://www.w3.org/2000/svg">
<path d="M243.8 46.2998L105.124 88.9852L217.596 63.9992L220.308 74.7338L243.8 46.2998Z" fill="#FF6D60"/>
<path d="M187.805 36.8983L112.778 70.9179L170.014 39.2429L167.118 33.6342L187.805 36.8983Z" fill="#FF6D60"/>
<path d="M61.0596 98.5695L249.087 38.9662L255.27 54.9187L288.348 7.95777L233.985 0.0734863L240.076 15.7961L61.0596 98.5695Z" fill="#2A2F4F"/>
<path d="M120.962 90.2016C120.942 90.0441 120.891 89.892 120.812 89.7544C120.733 89.6168 120.627 89.4963 120.501 89.4C120.374 89.3037 120.23 89.2335 120.076 89.1935C119.923 89.1536 119.763 89.1446 119.605 89.1673C119.29 89.2182 119.006 89.3915 118.817 89.6495C118.628 89.9076 118.548 90.2298 118.594 90.5464C118.893 92.8336 119.062 95.1359 119.1 97.4423H99.9752C99.9752 95.3046 99.9752 93.1669 99.6994 91.0521C99.6701 90.7328 99.5162 90.4379 99.2709 90.2313C99.0256 90.0248 98.7088 89.9232 98.3892 89.9488C98.0698 89.978 97.7749 90.132 97.5684 90.3773C97.3618 90.6225 97.2603 90.9394 97.2858 91.259C97.4697 93.2818 97.5387 95.3735 97.5617 97.4423H62.0939V82.3174C80.8736 82.0875 98.3662 76.272 109.537 66.5948C110.02 67.3073 110.503 68.0199 110.94 68.7555C111.104 69.0298 111.371 69.2275 111.681 69.3051C111.992 69.3827 112.32 69.3338 112.595 69.1692C112.869 69.0046 113.067 68.7378 113.144 68.4274C113.222 68.117 113.173 67.7885 113.008 67.5142C112.457 66.6178 111.882 65.7213 111.284 64.8478C111.373 64.6376 111.399 64.406 111.358 64.1814C111.317 63.9568 111.212 63.749 111.055 63.5836C110.938 63.4642 110.799 63.37 110.644 63.3067C110.49 63.2435 110.325 63.2125 110.158 63.2158C105.428 56.6774 99.4521 51.1387 92.5736 46.9185C92.4053 46.7403 92.1902 46.6129 91.953 46.5508C82.5467 40.8876 71.7747 37.8952 60.7952 37.8952C49.8156 37.8952 39.0436 40.8876 29.6373 46.5508L29.4764 46.6657C22.2047 51.058 15.9392 56.9319 11.0874 63.9054C11.0874 63.9054 11.0874 64.0893 10.9495 64.1582C3.94342 74.2641 0.197531 86.2718 0.214904 98.5686C0.218464 100.641 0.325867 102.713 0.536711 104.775C0.571016 105.065 0.712644 105.332 0.933793 105.524C1.15494 105.715 1.43964 105.817 1.732 105.809C2.05153 105.775 2.34437 105.615 2.54673 105.365C2.74908 105.115 2.84456 104.796 2.81235 104.476C2.65145 102.913 2.58249 101.327 2.53651 99.7179H16.3053C16.4642 99.721 16.6221 99.6923 16.7698 99.6336C16.9174 99.5749 17.0519 99.4874 17.1654 99.3761C17.2788 99.2648 17.3689 99.132 17.4304 98.9854C17.4919 98.8389 17.5236 98.6816 17.5235 98.5227C17.5117 98.2076 17.3781 97.9094 17.1509 97.6908C16.9237 97.4722 16.6206 97.3501 16.3053 97.3504H2.51353C2.77168 86.3872 6.13534 75.7223 12.2137 66.5948C16.0466 69.8632 20.3078 72.5931 24.8791 74.7089C23.5664 79.5585 22.8884 97.8548 22.4114 102.856C22.3924 103.014 22.4055 103.174 22.4501 103.326C22.4947 103.479 22.5697 103.62 22.6708 103.743C22.7718 103.865 22.8967 103.966 23.0378 104.039C23.1789 104.112 23.3334 104.155 23.4918 104.166H23.6067C23.9084 104.167 24.1993 104.054 24.421 103.849C24.6427 103.645 24.7788 103.364 24.802 103.063C25.2598 98.3321 25.8994 80.3046 27.1548 75.7203C37.4651 80.0088 48.5138 82.242 59.6803 82.2944V97.3274H15.4009C15.242 97.3273 15.0847 97.359 14.9381 97.4205C14.7916 97.482 14.6588 97.5721 14.5475 97.6856C14.4362 97.799 14.3486 97.9335 14.2899 98.0812C14.2312 98.2288 14.2026 98.3868 14.2056 98.5456C14.2056 98.8627 14.3316 99.1667 14.5557 99.3908C14.7799 99.615 15.0839 99.7409 15.4009 99.7409H59.6803V107.464C59.6803 107.781 59.8063 108.085 60.0304 108.309C60.2546 108.534 60.5586 108.66 60.8756 108.66C61.0345 108.663 61.1924 108.634 61.3401 108.575C61.4878 108.517 61.6223 108.429 61.7357 108.318C61.8491 108.206 61.9392 108.074 62.0007 107.927C62.0622 107.781 62.0939 107.623 62.0939 107.464V99.7639H97.5617C97.5617 101.373 97.5617 102.982 97.4007 104.568C97.3818 104.888 97.4893 105.202 97.7 105.443C97.9108 105.683 98.2079 105.832 98.5271 105.855C98.8349 105.856 99.1316 105.74 99.3576 105.532C99.5836 105.323 99.7221 105.036 99.7453 104.729C99.7453 103.097 99.8833 101.419 99.8833 99.7639H119.031C119.031 101.373 118.939 102.959 118.755 104.522C118.723 104.842 118.818 105.161 119.021 105.411C119.223 105.661 119.516 105.821 119.835 105.855H119.973C120.27 105.852 120.555 105.74 120.775 105.541C120.995 105.342 121.135 105.07 121.169 104.775C121.372 102.712 121.471 100.641 121.467 98.5686C121.495 95.7712 121.326 92.9754 120.962 90.2016ZM62.0939 40.3904C69.2998 40.9994 76.001 44.3377 80.8277 49.7229C74.6838 51.1601 68.4029 51.9308 62.0939 52.0215V40.3904ZM59.6803 51.8836C53.3982 51.8306 47.1402 51.0985 41.0155 49.6999C45.8271 44.3293 52.4981 40.9856 59.6803 40.3445V51.8836ZM62.0939 54.2971C69.0286 54.2265 75.9319 53.3549 82.6666 51.6997C87.8608 58.079 91.708 65.445 93.9758 73.3527C83.8837 77.6097 73.047 79.8208 62.0939 79.8578V54.2971ZM108.066 64.549C104.44 67.6802 100.403 70.3018 96.0676 72.3413C93.8502 64.6388 90.1834 57.4302 85.264 51.102C87.4017 50.5044 89.4705 49.8148 91.4703 49.0563C98.0351 53.0766 103.738 58.3578 108.25 64.595L108.066 64.549ZM88.712 47.4702C87.011 48.0679 85.264 48.5965 83.4711 49.0792C81.0563 46.4061 78.2786 44.0849 75.219 42.1834C79.917 43.3839 84.4489 45.1596 88.712 47.4702ZM38.1422 49.0333C36.3953 48.5735 34.6713 48.0219 32.9703 47.4472C37.2168 45.1129 41.7431 43.3286 46.4402 42.1374C43.3555 44.0229 40.5604 46.3456 38.1422 49.0333ZM13.5929 64.595C18.0793 58.37 23.7407 53.0834 30.2579 49.0333C32.2577 49.7918 34.3265 50.4814 36.4412 51.0791C31.4667 57.4093 27.7524 64.6349 25.4998 72.3643C21.1949 70.3299 17.1888 67.7159 13.5929 64.595ZM27.7984 73.4217C30.0665 65.5095 33.9223 58.1421 39.1306 51.7686C45.8529 53.4035 52.7395 54.2672 59.6573 54.3431V79.9038C48.7142 79.865 37.8867 77.662 27.7984 73.4217Z" fill="#FF6D60"/>
<path d="M10.0684 187.226H12.0993V202.512H10.0684V187.226ZM32.7388 187.226H34.7696V202.512H33.1318L25.2705 191.091V202.512H23.2397V187.226H24.8775L32.7388 198.625V187.226ZM55.6836 187.226V189.147H51.1633V202.512H49.1543V189.147H44.6559V187.226H55.6836ZM67.5856 200.59H74.6826V202.512H65.5547V187.226H74.5734V189.147H67.5856V193.842H74.0274V195.742H67.5856V200.59ZM94.0579 202.512L90.6295 196.659H87.0264V202.512H84.9956V187.226H91.1099C92.4201 187.226 93.5411 187.692 94.4728 188.623C95.4045 189.54 95.8704 190.654 95.8704 191.964C95.8704 192.954 95.5719 193.857 94.975 194.672C94.3927 195.487 93.6357 196.062 92.704 196.397L96.3071 202.512H94.0579ZM87.0264 189.126V194.825H91.1099C91.8669 194.825 92.5075 194.548 93.0315 193.995C93.5702 193.427 93.8395 192.75 93.8395 191.964C93.8395 191.178 93.5702 190.509 93.0315 189.955C92.5075 189.402 91.8669 189.126 91.1099 189.126H87.0264ZM115.705 187.226H117.736V202.512H116.099L108.237 191.091V202.512H106.206V187.226H107.844L115.705 198.625V187.226ZM138.934 202.512L137.689 199.083H130.811L129.566 202.512H127.404L133.104 187.226H135.397L141.096 202.512H138.934ZM131.51 197.183H136.991L134.239 189.65L131.51 197.183ZM159.435 187.226V189.147H154.914V202.512H152.905V189.147H148.407V187.226H159.435ZM169.306 187.226H171.337V202.512H169.306V187.226ZM195.186 200.481C193.657 202.024 191.787 202.795 189.574 202.795C187.361 202.795 185.49 202.024 183.962 200.481C182.433 198.938 181.669 197.067 181.669 194.869C181.669 192.656 182.433 190.785 183.962 189.257C185.49 187.713 187.361 186.942 189.574 186.942C191.787 186.942 193.657 187.713 195.186 189.257C196.729 190.785 197.501 192.656 197.501 194.869C197.501 197.067 196.729 198.938 195.186 200.481ZM185.359 199.105C186.495 200.241 187.9 200.808 189.574 200.808C191.248 200.808 192.646 200.241 193.767 199.105C194.902 197.955 195.47 196.543 195.47 194.869C195.47 193.18 194.902 191.768 193.767 190.632C192.646 189.482 191.248 188.907 189.574 188.907C187.9 188.907 186.495 189.482 185.359 190.632C184.239 191.768 183.678 193.18 183.678 194.869C183.678 196.543 184.239 197.955 185.359 199.105ZM217.303 187.226H219.333V202.512H217.696L209.834 191.091V202.512H207.804V187.226H209.441L217.303 198.625V187.226ZM240.531 202.512L239.287 199.083H232.408L231.163 202.512H229.001L234.701 187.226H236.994L242.693 202.512H240.531ZM233.107 197.183H238.588L235.836 189.65L233.107 197.183ZM254.389 200.59H260.983V202.512H252.358V187.226H254.389V200.59Z" fill="#2A2F4F"/>
<path d="M79.6135 103.721C86.9936 103.721 92.872 106.124 97.2485 110.93C101.711 115.735 103.942 122.171 103.942 130.238V169.885H87.3369V131.397C87.3369 127.535 86.3929 124.531 84.505 122.386C82.617 120.241 79.9568 119.168 76.5241 119.168C72.7483 119.168 69.7876 120.412 67.6423 122.901C65.5827 125.389 64.5529 128.994 64.5529 133.714V169.885H47.9476V131.397C47.9476 127.535 47.0037 124.531 45.1157 122.386C43.2278 120.241 40.5675 119.168 37.1349 119.168C33.4449 119.168 30.4842 120.412 28.253 122.901C26.1076 125.389 25.035 128.994 25.035 133.714V169.885H8.42969V105.523H25.035V112.346C28.8966 106.596 34.8608 103.721 42.9274 103.721C50.8225 103.721 56.6579 106.81 60.4338 112.989C64.7245 106.81 71.1178 103.721 79.6135 103.721ZM153.83 103.721C160.867 103.721 166.66 106.081 171.208 110.801C175.842 115.521 178.159 122.043 178.159 130.367V169.885H161.554V132.426C161.554 128.136 160.395 124.875 158.078 122.643C155.761 120.326 152.672 119.168 148.81 119.168C144.519 119.168 141.087 120.498 138.512 123.158C135.938 125.819 134.651 129.809 134.651 135.129V169.885H118.045V105.523H134.651V112.732C138.684 106.725 145.077 103.721 153.83 103.721ZM229.796 103.721C238.463 103.721 245.843 107.025 251.936 113.633C258.115 120.155 261.204 128.178 261.204 137.704C261.204 147.229 258.115 155.296 251.936 161.904C245.843 168.426 238.463 171.687 229.796 171.687C220.785 171.687 213.834 168.555 208.943 162.29V169.885H192.338V79.7786H208.943V113.118C213.834 106.853 220.785 103.721 229.796 103.721ZM213.963 150.834C217.31 154.18 221.558 155.854 226.707 155.854C231.856 155.854 236.103 154.18 239.45 150.834C242.883 147.401 244.599 143.024 244.599 137.704C244.599 132.383 242.883 128.05 239.45 124.703C236.103 121.27 231.856 119.554 226.707 119.554C221.558 119.554 217.31 121.27 213.963 124.703C210.616 128.05 208.943 132.383 208.943 137.704C208.943 143.024 210.616 147.401 213.963 150.834Z" fill="#2A2F4F"/>
</svg>
