<svg width="20" height="17" viewBox="0 0 20 17" fill="none" xmlns="http://www.w3.org/2000/svg">
<path d="M19.4506 2.60145C18.7316 2.91367 17.9708 3.11937 17.1922 3.21204C18.0104 2.7333 18.6257 1.97273 18.9227 1.07299C18.1492 1.52498 17.3043 1.84212 16.4243 2.01082C16.0537 1.62273 15.608 1.31399 15.1143 1.10337C14.6206 0.892758 14.0893 0.78466 13.5525 0.785651C11.3791 0.785651 9.62033 2.51764 9.62033 4.6527C9.61879 4.94968 9.65285 5.24578 9.72177 5.53466C8.16334 5.46166 6.63731 5.06439 5.24132 4.36827C3.84533 3.67214 2.61012 2.6925 1.61472 1.49202C1.26551 2.0803 1.08083 2.75152 1.07997 3.43552C1.07997 4.77642 1.78006 5.96168 2.83717 6.65607C2.21086 6.64122 1.59738 6.47557 1.04882 6.17319V6.22108C1.04882 8.09674 2.40666 9.65713 4.20379 10.0123C3.86584 10.1023 3.51759 10.1479 3.16784 10.148C2.91967 10.1484 2.67206 10.1244 2.42862 10.0762C2.92822 11.6126 4.3823 12.73 6.10475 12.7619C4.70514 13.8398 2.98678 14.4224 1.21975 14.4181C0.906099 14.4176 0.592739 14.399 0.28125 14.3622C2.07885 15.5093 4.16842 16.116 6.30124 16.1102C13.5441 16.1102 17.5009 10.2158 17.5009 5.10366C17.5009 4.93605 17.4966 4.76844 17.4886 4.60482C18.2566 4.0589 18.921 3.38049 19.4506 2.60145Z" fill="white"/>
</svg>
